<svg version="1.1" xmlns="http://www.w3.org/2000/svg" xmlns:xlink="http://www.w3.org/1999/xlink" width="453" height="292"><defs/><g transform="scale(1,1) translate(-577,-190)"><path fill="none" stroke="#000000" paint-order="fill stroke markers" d=" M 688 432 L 688 340" stroke-linecap="round" stroke-miterlimit="10" stroke-width="3" stroke-dasharray=""/><path fill="none" stroke="#000000" paint-order="fill stroke markers" d=" M 688 332 L 688 240" stroke-linecap="round" stroke-miterlimit="10" stroke-width="3" stroke-dasharray=""/><path fill="none" stroke="#000000" paint-order="fill stroke markers" d=" M 678 340 L 698 340" stroke-linecap="round" stroke-miterlimit="10" stroke-width="3" stroke-dasharray=""/><path fill="none" stroke="#000000" paint-order="fill stroke markers" d=" M 672 332 L 704 332" stroke-linecap="round" stroke-miterlimit="10" stroke-width="3" stroke-dasharray=""/><path fill="none" stroke="#000000" paint-order="fill stroke markers" d=" M 688 432 L 864 432" stroke-linecap="round" stroke-miterlimit="10" stroke-width="3" stroke-dasharray=""/><text fill="#000000" stroke="none" font-family="sans-serif" font-size="12px" font-style="normal" font-weight="normal" text-decoration="normal" x="776" y="426" text-anchor="start" dominant-baseline="alphabetic"></text><path fill="none" stroke="#000000" paint-order="fill stroke markers" d=" M 864 320 L 864 344" stroke-linecap="round" stroke-miterlimit="10" stroke-width="3" stroke-dasharray=""/><path fill="none" stroke="#000000" paint-order="fill stroke markers" d=" M 864 376 L 864 400" stroke-linecap="round" stroke-miterlimit="10" stroke-width="3" stroke-dasharray=""/><g transform="matrix(0,1,-1,0,864,344)"><path fill="none" stroke="#000000" paint-order="fill stroke markers" d=" M 0 0 L 2 6 L 6 -6 L 10 6 L 14 -6 L 18 6 L 22 -6 L 26 6 L 30 -6 L 32 0" stroke-linecap="round" stroke-miterlimit="10" stroke-width="3" stroke-dasharray=""/></g><text fill="#000000" stroke="none" font-family="sans-serif" font-size="12px" font-style="normal" font-weight="normal" text-decoration="normal" x="874" y="366" text-anchor="start" dominant-baseline="alphabetic">1k</text><path fill="none" stroke="#000000" paint-order="fill stroke markers" d=" M 864 240 L 960 240" stroke-linecap="round" stroke-miterlimit="10" stroke-width="3" stroke-dasharray=""/><text fill="#000000" stroke="none" font-family="sans-serif" font-size="12px" font-style="normal" font-weight="normal" text-decoration="normal" x="912" y="234" text-anchor="start" dominant-baseline="alphabetic"></text><path fill="none" stroke="#000000" paint-order="fill stroke markers" d=" M 960 320 L 960 344" stroke-linecap="round" stroke-miterlimit="10" stroke-width="3" stroke-dasharray=""/><path fill="none" stroke="#000000" paint-order="fill stroke markers" d=" M 960 376 L 960 400" stroke-linecap="round" stroke-miterlimit="10" stroke-width="3" stroke-dasharray=""/><g transform="matrix(0,1,-1,0,960,344)"><path fill="none" stroke="#000000" paint-order="fill stroke markers" d=" M 0 0 L 2 6 L 6 -6 L 10 6 L 14 -6 L 18 6 L 22 -6 L 26 6 L 30 -6 L 32 0" stroke-linecap="round" stroke-miterlimit="10" stroke-width="3" stroke-dasharray=""/></g><text fill="#000000" stroke="none" font-family="sans-serif" font-size="12px" font-style="normal" font-weight="normal" text-decoration="normal" x="970" y="366" text-anchor="start" dominant-baseline="alphabetic">2k</text><path fill="none" stroke="#000000" paint-order="fill stroke markers" d=" M 864 432 L 960 432" stroke-linecap="round" stroke-miterlimit="10" stroke-width="3" stroke-dasharray=""/><text fill="#000000" stroke="none" font-family="sans-serif" font-size="12px" font-style="normal" font-weight="normal" text-decoration="normal" x="912" y="426" text-anchor="start" dominant-baseline="alphabetic"></text><path fill="none" stroke="#000000" paint-order="fill stroke markers" d=" M 864 400 L 864 432" stroke-linecap="round" stroke-miterlimit="10" stroke-width="3" stroke-dasharray=""/><text fill="#000000" stroke="none" font-family="sans-serif" font-size="12px" font-style="normal" font-weight="normal" text-decoration="normal" x="870" y="422" text-anchor="start" dominant-baseline="alphabetic"></text><path fill="none" stroke="#000000" paint-order="fill stroke markers" d=" M 960 400 L 960 432" stroke-linecap="round" stroke-miterlimit="10" stroke-width="3" stroke-dasharray=""/><text fill="#000000" stroke="none" font-family="sans-serif" font-size="12px" font-style="normal" font-weight="normal" text-decoration="normal" x="966" y="422" text-anchor="start" dominant-baseline="alphabetic"></text><path fill="none" stroke="#000000" paint-order="fill stroke markers" d=" M 688 240 L 864 240" stroke-linecap="round" stroke-miterlimit="10" stroke-width="3" stroke-dasharray=""/><path fill="#000000" stroke="none" paint-order="stroke fill markers" d=" M 794 240 L 780 233 L 780 247 Z"/><text fill="#000000" stroke="none" font-family="sans-serif" font-size="12px" font-style="normal" font-weight="normal" text-decoration="normal" x="755" y="234" text-anchor="start" dominant-baseline="alphabetic">7.5 mA</text><path fill="none" stroke="#000000" paint-order="fill stroke markers" d=" M 864 240 L 864 320" stroke-linecap="round" stroke-miterlimit="10" stroke-width="3" stroke-dasharray=""/><path fill="#000000" stroke="none" paint-order="stroke fill markers" d=" M 864 288 L 871 274 L 857 274 Z"/><text fill="#000000" stroke="none" font-family="sans-serif" font-size="12px" font-style="normal" font-weight="normal" text-decoration="normal" x="870" y="286" text-anchor="start" dominant-baseline="alphabetic">5 mA</text><path fill="none" stroke="#000000" paint-order="fill stroke markers" d=" M 960 240 L 960 320" stroke-linecap="round" stroke-miterlimit="10" stroke-width="3" stroke-dasharray=""/><path fill="#000000" stroke="none" paint-order="stroke fill markers" d=" M 960 288 L 967 274 L 953 274 Z"/><text fill="#000000" stroke="none" font-family="sans-serif" font-size="12px" font-style="normal" font-weight="normal" text-decoration="normal" x="966" y="286" text-anchor="start" dominant-baseline="alphabetic">2.5 mA</text><g><text fill="#000000" stroke="none" font-family="sans-serif" font-size="12px" font-style="normal" font-weight="normal" text-decoration="normal" x="926" y="366" text-anchor="start" dominant-baseline="alphabetic">R2</text></g><g><text fill="#000000" stroke="none" font-family="sans-serif" font-size="12px" font-style="normal" font-weight="normal" text-decoration="normal" x="834" y="365" text-anchor="start" dominant-baseline="alphabetic">R1</text></g><g><text fill="#000000" stroke="none" font-family="sans-serif" font-size="12px" font-style="normal" font-weight="normal" text-decoration="normal" x="713" y="340" text-anchor="start" dominant-baseline="alphabetic">Vs</text></g><g><text fill="#000000" stroke="none" font-family="sans-serif" font-size="12px" font-style="normal" font-weight="normal" text-decoration="normal" x="647" y="340" text-anchor="start" dominant-baseline="alphabetic">5V</text></g><path fill="#000000" stroke="none" paint-order="stroke fill markers" d=" M 867 240 A 3 3 0 1 1 866.9999999999577 239.99998407846124 Z"/><path fill="#000000" stroke="none" paint-order="stroke fill markers" d=" M 867 432 A 3 3 0 1 1 866.9999999999577 431.99998407846124 Z"/></g></svg>